<?xml version="1.0" encoding="UTF-8" standalone="no"?>
<svg
   xmlns:dc="http://purl.org/dc/elements/1.1/"
   xmlns:cc="http://creativecommons.org/ns#"
   xmlns:rdf="http://www.w3.org/1999/02/22-rdf-syntax-ns#"
   xmlns:svg="http://www.w3.org/2000/svg"
   xmlns="http://www.w3.org/2000/svg"
   xmlns:sodipodi="http://sodipodi.sourceforge.net/DTD/sodipodi-0.dtd"
   xmlns:inkscape="http://www.inkscape.org/namespaces/inkscape"
   width="595.277"
   height="595.273"
   id="svg2"
   sodipodi:version="0.32"
   inkscape:version="0.46"
   sodipodi:docname="BSC_Young_Boys_Logo.svg"
   inkscape:output_extension="org.inkscape.output.svg.inkscape">
  <metadata
     id="metadata65">
    <rdf:RDF>
      <cc:Work
         rdf:about="">
        <dc:format>image/svg+xml</dc:format>
        <dc:type
           rdf:resource="http://purl.org/dc/dcmitype/StillImage" />
      </cc:Work>
    </rdf:RDF>
  </metadata>
  <sodipodi:namedview
     inkscape:window-height="681"
     inkscape:window-width="640"
     inkscape:pageshadow="2"
     inkscape:pageopacity="0.0"
     guidetolerance="10.0"
     gridtolerance="10.0"
     objecttolerance="10.0"
     borderopacity="1.0"
     bordercolor="#666666"
     pagecolor="#ffffff"
     id="base"
     showgrid="false"
     inkscape:zoom="0.77611448"
     inkscape:cx="297.63849"
     inkscape:cy="297.63651"
     inkscape:window-x="110"
     inkscape:window-y="145"
     inkscape:current-layer="g12" />
  <defs
     id="defs4">
    <inkscape:perspective
       sodipodi:type="inkscape:persp3d"
       inkscape:vp_x="0 : 297.63651 : 1"
       inkscape:vp_y="0 : 1000 : 0"
       inkscape:vp_z="595.27698 : 297.63651 : 1"
       inkscape:persp3d-origin="297.63849 : 198.42434 : 1"
       id="perspective67" />
    <marker
       id="ArrowEnd"
       viewBox="0 0 10 10"
       refX="0"
       refY="5"
       markerUnits="strokeWidth"
       markerWidth="4"
       markerHeight="3"
       orient="auto">
      <path
         d="M 0 0 L 10 5 L 0 10 z"
         id="path7" />
    </marker>
    <marker
       id="ArrowStart"
       viewBox="0 0 10 10"
       refX="10"
       refY="5"
       markerUnits="strokeWidth"
       markerWidth="4"
       markerHeight="3"
       orient="auto">
      <path
         d="M 10 0 L 0 5 L 10 10 z"
         id="path10" />
    </marker>
  </defs>
  <g
     id="g12">
    <g
       id="g2493">
      <g
         id="g2466">
        <g
           id="g2440">
          <path
             id="path26"
             d="M 342.801 279.07L 342.801 364.008L 378.887 364.008C 385.887 364.008 387.48 359.957 387.48 356.055L 387.48 287.316C 387.48 280.934 384.234 279.066 378.887 279.066L 342.801 279.066L 342.801 279.07zM 342.801 379.77L 342.801 466.086L 378.887 466.086C 384.672 466.086 387.48 463.223 387.48 457.434L 387.48 389.738C 387.48 383.281 384.652 379.77 378.891 379.77L 342.801 379.77zM 273.719 466.086L 273.719 279.07L 257.223 279.07L 257.223 263.945L 393.664 263.949C 430 263.949 457.469 284.359 458.625 322.477C 459.223 342.184 447.727 362.73 430.078 373.746C 446.93 384.996 459.445 396.07 459.324 425.359C 459.18 460.969 426.82 481.844 402.258 481.844L 251.723 481.844L 251.723 466.086L 273.719 466.086"
             style="stroke:none; fill-rule:evenodd; fill:#000" />
          <path
             id="path28"
             d="M 244.848 264.766L 244.848 342.035L 260.656 342.035L 260.656 355.719L 152.398 355.719L 152.398 342.035L 177.484 342.035L 177.484 280.719L 100.586 211.16L 84.9102 196.98L 67.8477 196.98L 67.8477 183.297L 201.199 183.297L 201.199 196.98L 180.117 196.98L 238.863 250.121L 312.145 196.98L 284.371 196.98L 284.371 183.297L 363.074 183.297L 363.074 196.98L 338.328 196.98L 244.848 264.77"
             style="stroke:none; fill-rule:evenodd; fill:#000" />
        </g>
      </g>
    </g>
  </g>
</svg>
